<?xml version="1.0" encoding="utf-8"?>
<svg width="158" height="34" viewBox="0 0 158 34" fill="none" xmlns="http://www.w3.org/2000/svg" xmlns:bx="https://boxy-svg.com">
  <defs>
    <bx:export>
      <bx:file format="svg"/>
    </bx:export>
  </defs>
  <path fill="#FAFAF8" opacity="1.000000" stroke="none" d="M 16.342 4.594 C 18.137 4.586 19.937 4.614 21.731 4.564 C 28.704 4.371 30.153 8.789 29.024 14.093 C 28.488 16.618 26.888 18.457 24.534 19.716 C 25.609 22.085 26.64 24.358 27.79 26.893 C 25.974 26.893 24.346 26.955 22.727 26.85 C 22.32 26.824 21.792 26.335 21.597 25.929 C 20.952 24.616 20.436 23.242 19.814 21.763 C 20.241 21.478 20.663 21.196 21.499 20.637 C 19.347 20.637 17.605 20.637 15.738 20.512 C 16.477 18.975 17.341 17.563 18.369 15.881 C 18.727 15.881 19.534 15.931 20.334 15.87 C 22.417 15.709 23.761 14.041 23.692 11.767 C 23.636 9.962 22.775 9.325 20.334 9.302 C 18.344 9.281 16.355 9.274 14.341 9.131 C 14.431 8.59 14.544 8.179 14.706 7.725 C 14.755 7.681 14.73 7.56 14.828 7.473 C 14.982 7.142 15.035 6.897 15.12 6.615 C 15.145 6.583 15.088 6.519 15.198 6.452 C 15.368 6.23 15.425 6.072 15.551 5.863 C 15.62 5.807 15.644 5.631 15.705 5.559 C 15.956 5.191 16.147 4.892 16.342 4.594 Z" style=""/>
  <path fill="#FAC20A" opacity="1.000000" stroke="none" d="M 14.743 7.573 C 14.743 7.573 14.768 7.694 14.593 7.763 C 13.631 9.402 12.332 9.885 10.633 9.64 C 9.967 9.546 9.273 9.599 8.596 9.629 C 7.202 9.693 7.097 8.966 7.369 7.865 C 7.568 7.073 7.617 6.245 7.735 5.437 C 7.735 5.437 7.747 5.368 7.901 5.401 C 8.632 5.166 9.216 4.896 9.801 4.625 C 10.69 4.604 11.58 4.586 12.685 4.712 C 13.379 4.783 13.866 4.708 14.354 4.635 C 14.52 4.616 14.687 4.596 14.983 4.763 C 15.292 5.178 15.475 5.412 15.657 5.644 C 15.657 5.644 15.633 5.82 15.462 5.947 C 15.227 6.228 15.166 6.381 15.101 6.532 C 15.101 6.532 15.158 6.596 15.028 6.711 C 14.849 7.076 14.796 7.323 14.743 7.573 Z" style=""/>
  <path fill="#E6AF14" opacity="1.000000" stroke="none" d="M 7.65 5.529 C 7.617 6.245 7.568 7.073 7.369 7.865 C 7.097 8.966 7.202 9.693 8.596 9.629 C 9.273 9.599 9.967 9.546 10.633 9.64 C 12.332 9.885 13.631 9.402 14.545 7.803 C 14.557 8.192 14.444 8.603 14.354 9.144 C 13.599 10.822 12.814 12.372 11.901 13.863 C 11.746 13.393 11.723 12.982 11.815 12.499 C 12.125 11.863 12.323 11.299 12.55 10.636 C 6.601 10.671 6.601 10.671 6.004 13.758 C 5.847 14.281 5.781 14.71 5.623 15.191 C 5.343 15.449 5.156 15.655 4.92 15.862 C 4.867 15.86 4.762 15.868 4.762 15.868 C 5.696 12.453 6.63 9.037 7.65 5.529 Z" style=""/>
  <path fill="#EC8D16" opacity="1.000000" stroke="none" d="M 4.936 15.191 C 4.998 15.038 5.099 15.027 5.152 15.208 C 5.062 16.706 4.92 18.023 4.741 19.677 C 5.684 19.767 6.711 20.106 7.654 19.91 C 10.017 19.417 12.669 20.487 14.764 18.419 C 14.849 18.6 14.922 18.679 15.016 18.736 C 15.011 18.867 14.963 18.975 14.719 19.159 C 14.504 19.374 14.444 19.489 14.378 19.606 C 14.37 19.725 14.329 19.833 14.086 20.012 C 13.818 20.313 13.721 20.528 13.627 20.739 C 13.57 20.865 13.517 20.992 13.294 21.22 C 13.062 21.437 12.997 21.554 12.929 21.669 C 12.929 21.669 12.924 21.638 12.847 21.687 C 12.709 21.861 12.644 21.983 12.584 22.111 C 12.584 22.111 12.579 22.063 12.498 22.111 C 12.332 22.374 12.246 22.586 12.16 22.801 C 12.104 22.925 12.051 23.051 11.811 23.214 C 11.564 23.253 11.499 23.249 11.356 23.143 C 10.516 22.565 9.749 22.09 8.961 21.498 C 8.814 21.189 8.697 20.998 8.575 20.806 C 7.641 20.67 6.703 20.382 5.777 20.434 C 4.072 20.528 3.8 19.636 4.21 18.069 C 4.445 17.165 4.653 16.254 4.936 15.191 Z" style=""/>
  <path fill="#BD6F2F" opacity="1.000000" stroke="none" d="M 8.741 21.044 C 8.851 21.067 8.973 21.237 9.09 21.675 C 8.876 23.061 8.6 24.18 8.494 25.313 C 8.453 25.757 8.791 26.238 8.986 26.733 C 9.018 26.766 9.083 26.83 9.083 26.83 C 8.653 27.292 8.222 27.754 7.666 28.232 C 7.544 28.247 7.54 28.255 7.531 28.099 C 7.792 26.449 8.056 24.958 8.323 23.469 C 8.465 22.708 8.608 21.95 8.741 21.044 Z" style=""/>
  <path fill="#E6AF14" opacity="1.000000" stroke="none" d="M 9.675 4.584 C 9.216 4.896 8.632 5.166 7.93 5.385 C 8.389 5.071 8.97 4.809 9.675 4.584 Z" style=""/>
  <path fill="#E6AF14" opacity="1.000000" stroke="none" d="M 15.718 5.572 C 15.475 5.412 15.292 5.178 15.105 4.79 C 15.459 4.599 15.811 4.563 16.262 4.568 C 16.16 4.905 15.969 5.204 15.718 5.572 Z" style=""/>
  <path fill="#E6AF14" opacity="1.000000" stroke="none" d="M 14.228 4.591 C 13.866 4.708 13.379 4.783 12.847 4.745 C 13.232 4.604 13.668 4.577 14.228 4.591 Z" style=""/>
  <path fill="#E6AF14" opacity="1.000000" stroke="none" d="M 14.841 7.486 C 14.796 7.323 14.849 7.076 15.004 6.744 C 15.048 6.91 14.995 7.155 14.841 7.486 Z" style=""/>
  <path fill="#E6AF14" opacity="1.000000" stroke="none" d="M 15.211 6.465 C 15.166 6.381 15.227 6.228 15.393 6.004 C 15.438 6.085 15.381 6.243 15.211 6.465 Z" style=""/>
  <path fill="#F4A20F" opacity="1.000000" stroke="none" d="M 5.721 15.139 C 5.781 14.71 5.847 14.281 6.139 13.779 C 7.544 13.804 8.745 14.088 9.887 13.935 C 10.545 13.845 11.101 13.049 11.702 12.572 C 11.723 12.982 11.746 13.393 11.82 13.955 C 11.868 14.103 11.843 14.098 11.714 14.152 C 11.641 14.632 11.694 15.063 11.751 15.492 C 11.868 15.515 11.962 15.579 12.059 15.878 C 12.096 16.245 12.1 16.412 12.006 16.68 C 9.842 16.233 7.779 15.687 5.721 15.139 Z" style=""/>
  <path fill="#DB8C2B" opacity="1.000000" stroke="none" d="M 12.107 16.578 C 12.1 16.412 12.096 16.245 12.096 15.954 C 12.973 15.85 13.847 15.819 14.708 15.903 C 15.287 15.962 15.852 16.185 16.424 16.335 C 16.23 16.938 16.075 17.558 15.827 18.138 C 15.686 18.465 15.381 18.722 15.057 19.103 C 14.869 19.142 14.793 19.069 14.731 18.773 C 14.95 18.051 15.177 17.532 15.528 16.741 C 14.219 16.68 13.163 16.628 12.107 16.578 Z" style=""/>
  <path fill="#E6AF14" opacity="1.000000" stroke="none" d="M 11.742 15.352 C 11.694 15.063 11.641 14.632 11.707 14.146 C 11.792 14.463 11.763 14.839 11.742 15.352 Z" style=""/>
  <path fill="#BD6F2F" opacity="1.000000" stroke="none" d="M 9.907 25.545 C 9.749 25.775 9.59 26.005 9.303 26.258 C 9.168 26.281 9.067 26.194 9.095 26.082 C 9.338 25.783 9.558 25.594 9.81 25.438 C 9.842 25.474 9.907 25.545 9.907 25.545 Z" style=""/>
  <path fill="#BD6F2F" opacity="1.000000" stroke="none" d="M 10.727 24.534 C 10.626 24.705 10.529 24.876 10.309 25.068 C 10.187 25.089 10.118 25.029 10.155 24.935 C 10.321 24.68 10.447 24.522 10.614 24.405 C 10.651 24.447 10.727 24.534 10.727 24.534 Z" style=""/>
  <path fill="#BD6F2F" opacity="1.000000" stroke="none" d="M 11.223 23.97 C 11.117 24.125 11.007 24.284 10.812 24.488 C 10.727 24.534 10.651 24.447 10.667 24.327 C 10.777 24.123 10.869 24.038 11.028 23.957 C 11.092 23.96 11.223 23.97 11.223 23.97 Z" style=""/>
  <path fill="#DB8C2B" opacity="1.000000" stroke="none" d="M 12.148 22.79 C 12.144 22.652 12.23 22.461 12.421 22.228 C 12.429 22.372 12.336 22.556 12.148 22.79 Z" style=""/>
  <path fill="#BD6F2F" opacity="1.000000" stroke="none" d="M 9.221 26.325 C 9.156 26.539 9.046 26.708 8.847 26.931 C 8.762 26.988 8.697 26.924 8.701 26.797 C 8.827 26.511 8.949 26.353 9.067 26.194 C 9.067 26.194 9.168 26.281 9.221 26.325 Z" style=""/>
  <path fill="#DB8C2B" opacity="1.000000" stroke="none" d="M 13.647 20.944 C 13.647 20.801 13.744 20.61 13.948 20.379 C 13.951 20.525 13.847 20.712 13.647 20.944 Z" style=""/>
  <path fill="#BD6F2F" opacity="1.000000" stroke="none" d="M 10.22 25.119 C 10.224 25.27 10.159 25.369 9.985 25.497 C 9.907 25.545 9.842 25.474 9.859 25.371 C 9.951 25.185 10.033 25.104 10.118 25.029 C 10.118 25.029 10.187 25.089 10.22 25.119 Z" style=""/>
  <path fill="#DB8C2B" opacity="1.000000" stroke="none" d="M 12.584 22.191 C 12.55 22.111 12.616 21.999 12.77 21.845 C 12.802 21.922 12.741 22.04 12.584 22.191 Z" style=""/>
  <path fill="#DB8C2B" opacity="1.000000" stroke="none" d="M 11.28 23.903 C 11.223 23.97 11.092 23.96 11.069 23.889 C 11.11 23.724 11.19 23.653 11.308 23.618 C 11.333 23.632 11.374 23.669 11.374 23.669 C 11.374 23.669 11.333 23.834 11.28 23.903 Z" style=""/>
  <path fill="#DB8C2B" opacity="1.000000" stroke="none" d="M 11.316 23.244 C 11.385 23.247 11.45 23.249 11.617 23.26 C 11.657 23.375 11.601 23.483 11.459 23.628 C 11.374 23.669 11.333 23.632 11.321 23.528 C 11.304 23.423 11.316 23.244 11.316 23.244 Z" style=""/>
  <path fill="#DB8C2B" opacity="1.000000" stroke="none" d="M 12.933 21.797 C 12.908 21.723 12.973 21.618 13.131 21.475 C 13.156 21.547 13.09 21.657 12.933 21.797 Z" style=""/>
  <path fill="#DB8C2B" opacity="1.000000" stroke="none" d="M 14.407 19.936 C 14.378 19.869 14.444 19.764 14.585 19.613 C 14.61 19.677 14.552 19.787 14.407 19.936 Z" style=""/>
  <path fill="#F5960E" opacity="1.000000" stroke="none" d="M 11.946 16.568 C 13.124 16.516 14.199 16.568 15.528 16.631 C 15.17 17.451 14.938 17.99 14.683 18.663 C 12.518 20.799 9.773 19.805 7.324 20.262 C 6.35 20.443 5.285 20.129 4.307 20.046 C 4.494 18.505 4.64 17.28 4.787 15.887 C 4.973 15.508 5.164 15.293 5.448 15.025 C 7.645 15.541 9.74 16.105 11.946 16.568 Z" style=""/>
  <path fill="#F2AA0C" opacity="1.000000" stroke="none" d="M 11.815 12.499 C 11.101 13.049 10.545 13.845 9.887 13.935 C 8.745 14.088 7.544 13.804 6.233 13.687 C 6.601 10.671 6.601 10.671 12.55 10.636 C 12.323 11.299 12.125 11.863 11.815 12.499 Z" style=""/>
  <path fill="#F07E1A" opacity="1.000000" stroke="none" d="M 11.418 22.89 C 11.494 22.982 11.482 23.157 11.475 23.247 C 11.369 23.391 11.287 23.462 11.182 23.62 C 11.048 23.776 10.954 23.857 10.809 24.021 C 10.626 24.256 10.5 24.417 10.334 24.669 C 10.212 24.841 10.13 24.919 10.004 25.073 C 9.737 25.328 9.517 25.518 9.269 25.818 C 9.124 26.089 9.005 26.247 8.847 26.5 C 8.648 26.13 8.311 25.65 8.352 25.206 C 8.458 24.072 8.734 22.956 8.97 21.675 C 9.781 21.943 10.561 22.368 11.418 22.89 Z" style=""/>
  <path d="M 51.746 29.165 C 51.163 29.064 51 28.794 51 27.917 C 51 26.906 51.065 26.837 51.941 26.972 C 52.588 27.074 53.076 26.906 53.562 26.399 C 54.859 25.05 54.761 24.308 52.653 18.877 C 51.551 16.045 50.677 13.616 50.677 13.481 C 50.677 13.313 51.325 13.211 52.135 13.211 C 53.82 13.211 53.627 12.841 55.085 18.102 L 56.122 21.778 L 56.835 19.282 C 57.225 17.9 57.776 15.943 58.067 15 L 58.586 13.211 L 60.013 13.211 C 61.245 13.211 61.406 13.279 61.212 13.819 C 61.115 14.123 60.078 17.057 58.911 20.294 C 57.776 23.532 56.577 26.567 56.252 27.006 C 55.052 28.726 53.367 29.503 51.746 29.165 Z" style="fill: rgb(250, 250, 248);"/>
  <path d="M 75.54 23.87 C 74.892 23.6 74.082 23.195 73.79 22.958 C 72.267 21.61 71.878 17.462 73.141 15.538 C 74.115 13.988 76.416 12.773 77.907 13.043 C 80.468 13.549 81.505 14.797 81.926 18.035 L 82.154 19.619 L 78.75 19.619 C 75.54 19.619 75.314 19.654 75.314 20.294 C 75.314 21.475 76.707 22.081 79.041 21.913 C 81.052 21.778 81.149 21.813 81.149 22.555 C 81.149 22.958 80.889 23.432 80.598 23.6 C 79.496 24.207 76.805 24.342 75.54 23.87 Z M 79.204 16.922 C 79.204 16.112 78.102 14.898 77.356 14.898 C 76.61 14.898 75.314 16.213 75.314 16.989 C 75.314 17.495 75.605 17.597 77.258 17.597 C 78.976 17.597 79.204 17.529 79.204 16.922 Z" style="fill: rgb(250, 250, 248);"/>
  <path d="M 94.182 23.97 C 92.269 23.498 90.097 21.306 89.577 19.282 C 88.67 15.808 89.934 11.728 92.431 10.007 C 94.052 8.895 96.516 8.389 98.525 8.725 L 100.113 8.995 L 100.21 10.48 C 100.308 11.728 100.243 11.931 99.789 11.728 C 97.488 10.817 95.121 11.256 93.629 12.874 C 91.911 14.73 92.204 19.216 94.084 20.598 C 95.38 21.576 97.26 21.813 98.913 21.205 L 100.275 20.699 L 100.275 22.015 C 100.275 22.891 100.113 23.398 99.724 23.633 C 98.785 24.14 95.672 24.308 94.182 23.97 Z" style="fill: rgb(250, 250, 248);"/>
  <path d="M 117.457 24.005 C 115.869 23.6 114.312 21.745 114.053 19.889 C 113.437 15.64 116.678 12.166 120.31 13.211 C 122.384 13.785 123.616 15.673 123.616 18.304 L 123.616 19.619 L 120.212 19.619 C 118.332 19.619 116.809 19.754 116.809 19.924 C 116.809 20.059 117.132 20.631 117.522 21.138 C 118.171 22.015 118.332 22.048 120.44 21.913 L 122.644 21.778 L 122.644 22.69 C 122.644 23.532 122.481 23.633 121.023 23.97 C 119.175 24.375 119.045 24.375 117.457 24.005 Z M 120.893 17.057 C 120.796 16.753 120.698 16.315 120.698 16.078 C 120.698 15.403 119.466 14.797 118.559 15.033 C 117.911 15.202 116.809 16.72 116.809 17.427 C 116.809 17.529 117.781 17.597 118.948 17.597 C 120.763 17.597 121.056 17.529 120.893 17.057 Z" style="fill: rgb(250, 250, 248);"/>
  <path d="M 140.862 23.837 C 139.5 23.228 139.177 22.216 139.177 18.574 C 139.177 15.607 139.177 15.573 138.366 15.573 C 137.652 15.573 137.556 15.438 137.556 14.392 C 137.556 13.346 137.652 13.211 138.366 13.211 C 139.079 13.211 139.177 13.076 139.177 12.031 C 139.177 10.986 139.274 10.851 140.409 10.547 C 142.127 10.041 142.095 10.007 142.095 11.694 C 142.095 13.211 142.095 13.211 143.229 13.211 C 144.299 13.211 144.364 13.279 144.364 14.392 C 144.364 15.505 144.299 15.573 143.229 15.573 L 142.095 15.573 L 142.095 18.372 C 142.095 21.374 142.353 21.981 143.618 21.981 C 144.234 21.981 144.364 22.15 144.364 22.958 C 144.364 24.375 142.873 24.747 140.862 23.837 Z" style="fill: rgb(250, 250, 248);"/>
  <path d="M 38.358 16.382 L 38.358 8.725 L 42.02 8.895 C 46.041 9.064 47.532 9.602 48.31 11.222 C 49.25 13.076 48.343 15.877 46.56 16.652 C 46.041 16.888 45.619 17.09 45.554 17.09 C 45.521 17.124 46.041 17.765 46.69 18.507 C 47.369 19.249 48.471 20.801 49.152 21.948 L 50.352 24.005 L 48.666 24.005 L 46.948 23.97 L 45.328 21.205 C 43.901 18.742 43.577 18.439 42.636 18.339 L 41.599 18.237 L 41.599 21.104 L 41.599 24.005 L 39.979 24.005 L 38.358 24.005 L 38.358 16.382 Z M 44.291 15.538 C 45.263 15 45.49 14.595 45.49 13.313 C 45.49 11.964 44.517 11.188 42.831 11.188 L 41.599 11.188 L 41.599 13.549 L 41.599 15.91 L 42.604 15.91 C 43.156 15.91 43.901 15.742 44.291 15.538 Z" style="fill: rgb(250, 250, 248);"/>
  <path d="M 61.698 23.465 C 61.698 23.195 62.865 21.408 64.291 19.519 C 65.718 17.63 66.885 15.977 66.885 15.842 C 66.885 15.673 65.881 15.573 64.616 15.573 L 62.347 15.573 L 62.347 14.392 L 62.347 13.211 L 66.562 13.211 L 70.775 13.211 L 70.775 14.055 C 70.775 14.595 69.868 16.112 68.312 18.169 L 65.881 21.475 L 68.312 21.576 L 70.775 21.678 L 70.775 22.825 L 70.775 24.005 L 66.237 24.005 C 62.314 24.005 61.698 23.937 61.698 23.465 Z" style="fill: rgb(250, 250, 248);"/>
  <path d="M 102.869 16.078 L 102.869 8.152 L 104.327 8.152 L 105.787 8.152 L 105.787 16.078 L 105.787 24.005 L 104.327 24.005 L 102.869 24.005 L 102.869 16.078 Z" style="fill: rgb(250, 250, 248);"/>
  <path d="M 108.704 18.609 L 108.704 13.211 L 110.162 13.211 L 111.622 13.211 L 111.622 18.609 L 111.622 24.005 L 110.162 24.005 L 108.704 24.005 L 108.704 18.609 Z" style="fill: rgb(250, 250, 248);"/>
  <path d="M 125.885 18.609 L 125.885 13.211 L 127.344 13.211 C 128.706 13.211 128.804 13.279 128.804 14.123 L 128.804 15 L 129.548 14.291 C 131.266 12.638 133.568 12.638 134.767 14.358 C 135.351 15.168 135.448 15.877 135.546 19.654 L 135.676 24.005 L 134.184 24.005 L 132.693 24.005 L 132.693 20.363 C 132.693 17.63 132.563 16.55 132.175 15.977 C 131.559 15.033 130.327 15 129.451 15.91 C 128.867 16.517 128.804 17.024 128.804 20.294 L 128.804 24.005 L 127.344 24.005 L 125.885 24.005 L 125.885 18.609 Z" style="fill: rgb(250, 250, 248);"/>
  <path d="M 109.481 11.188 C 108.121 10.614 108.186 9.03 109.611 8.457 C 110.195 8.22 110.617 8.287 111.168 8.659 C 112.14 9.299 112.173 10.311 111.232 10.986 C 110.422 11.593 110.422 11.593 109.481 11.188 Z" style="fill: rgb(250, 250, 248);"/>
</svg>