<?xml version="1.0" encoding="utf-8"?>
<svg xmlns="http://www.w3.org/2000/svg" viewBox="-0.0259 0.0085 36.9705 36.844" width="36.9705px" height="36.844px">
  <path fill="#FAFAF8" opacity="1.000000" stroke="none" d="M 17.721 5.115 C 19.516 5.107 21.316 5.135 23.11 5.085 C 30.083 4.892 31.532 9.31 30.403 14.614 C 29.867 17.139 28.267 18.978 25.913 20.237 C 26.988 22.606 28.019 24.879 29.169 27.414 C 27.353 27.414 25.725 27.476 24.106 27.371 C 23.699 27.345 23.171 26.856 22.976 26.45 C 22.331 25.137 21.815 23.763 21.193 22.284 C 21.62 21.999 22.042 21.717 22.878 21.158 C 20.726 21.158 18.984 21.158 17.117 21.033 C 17.856 19.496 18.72 18.084 19.748 16.402 C 20.106 16.402 20.913 16.452 21.713 16.391 C 23.796 16.23 25.14 14.562 25.071 12.288 C 25.015 10.483 24.154 9.846 21.713 9.823 C 19.723 9.802 17.734 9.795 15.72 9.652 C 15.81 9.111 15.923 8.7 16.085 8.246 C 16.134 8.202 16.109 8.081 16.207 7.994 C 16.361 7.663 16.414 7.418 16.499 7.136 C 16.524 7.104 16.467 7.04 16.577 6.973 C 16.747 6.751 16.804 6.593 16.93 6.384 C 16.999 6.328 17.023 6.152 17.084 6.08 C 17.335 5.712 17.526 5.413 17.721 5.115 Z" style=""/>
  <path fill="#FAC20A" opacity="1.000000" stroke="none" d="M 16.122 8.094 C 16.122 8.094 16.147 8.215 15.972 8.284 C 15.01 9.923 13.711 10.406 12.012 10.161 C 11.346 10.067 10.652 10.12 9.975 10.15 C 8.581 10.214 8.476 9.487 8.748 8.386 C 8.947 7.594 8.996 6.766 9.114 5.958 C 9.114 5.958 9.126 5.889 9.28 5.922 C 10.011 5.687 10.595 5.417 11.18 5.146 C 12.069 5.125 12.959 5.107 14.064 5.233 C 14.758 5.304 15.245 5.229 15.733 5.156 C 15.899 5.137 16.066 5.117 16.362 5.284 C 16.671 5.699 16.854 5.933 17.036 6.165 C 17.036 6.165 17.012 6.341 16.841 6.468 C 16.606 6.749 16.545 6.902 16.48 7.053 C 16.48 7.053 16.537 7.117 16.407 7.232 C 16.228 7.597 16.175 7.844 16.122 8.094 Z" style=""/>
  <path fill="#E6AF14" opacity="1.000000" stroke="none" d="M 9.029 6.05 C 8.996 6.766 8.947 7.594 8.748 8.386 C 8.476 9.487 8.581 10.214 9.975 10.15 C 10.652 10.12 11.346 10.067 12.012 10.161 C 13.711 10.406 15.01 9.923 15.924 8.324 C 15.936 8.713 15.823 9.124 15.733 9.665 C 14.978 11.343 14.193 12.893 13.28 14.384 C 13.125 13.914 13.102 13.503 13.194 13.02 C 13.504 12.384 13.702 11.82 13.929 11.157 C 7.98 11.192 7.98 11.192 7.383 14.279 C 7.226 14.802 7.16 15.231 7.002 15.712 C 6.722 15.97 6.535 16.176 6.299 16.383 C 6.246 16.381 6.141 16.389 6.141 16.389 C 7.075 12.974 8.009 9.558 9.029 6.05 Z" style=""/>
  <path fill="#EC8D16" opacity="1.000000" stroke="none" d="M 6.315 15.712 C 6.377 15.559 6.478 15.548 6.531 15.729 C 6.441 17.227 6.299 18.544 6.12 20.198 C 7.063 20.288 8.09 20.627 9.033 20.431 C 11.396 19.938 14.048 21.008 16.143 18.94 C 16.228 19.121 16.301 19.2 16.395 19.257 C 16.39 19.388 16.342 19.496 16.098 19.68 C 15.883 19.895 15.823 20.01 15.757 20.127 C 15.749 20.246 15.708 20.354 15.465 20.533 C 15.197 20.834 15.1 21.049 15.006 21.26 C 14.949 21.386 14.896 21.513 14.673 21.741 C 14.441 21.958 14.376 22.075 14.308 22.19 C 14.308 22.19 14.303 22.159 14.226 22.208 C 14.088 22.382 14.023 22.504 13.963 22.632 C 13.963 22.632 13.958 22.584 13.877 22.632 C 13.711 22.895 13.625 23.107 13.539 23.322 C 13.483 23.446 13.43 23.572 13.19 23.735 C 12.943 23.774 12.878 23.77 12.735 23.664 C 11.895 23.086 11.128 22.611 10.34 22.019 C 10.193 21.71 10.076 21.519 9.954 21.327 C 9.02 21.191 8.082 20.903 7.156 20.955 C 5.451 21.049 5.179 20.157 5.589 18.59 C 5.824 17.686 6.032 16.775 6.315 15.712 Z" style=""/>
  <path fill="#BD6F2F" opacity="1.000000" stroke="none" d="M 10.12 21.565 C 10.23 21.588 10.352 21.758 10.469 22.196 C 10.255 23.582 9.979 24.701 9.873 25.834 C 9.832 26.278 10.17 26.759 10.365 27.254 C 10.397 27.287 10.462 27.351 10.462 27.351 C 10.032 27.813 9.601 28.275 9.045 28.753 C 8.923 28.768 8.919 28.776 8.91 28.62 C 9.171 26.97 9.435 25.479 9.702 23.99 C 9.844 23.229 9.987 22.471 10.12 21.565 Z" style=""/>
  <path fill="#E6AF14" opacity="1.000000" stroke="none" d="M 11.054 5.105 C 10.595 5.417 10.011 5.687 9.309 5.906 C 9.768 5.592 10.349 5.33 11.054 5.105 Z" style=""/>
  <path fill="#E6AF14" opacity="1.000000" stroke="none" d="M 17.097 6.093 C 16.854 5.933 16.671 5.699 16.484 5.311 C 16.838 5.12 17.19 5.084 17.641 5.089 C 17.539 5.426 17.348 5.725 17.097 6.093 Z" style=""/>
  <path fill="#E6AF14" opacity="1.000000" stroke="none" d="M 15.607 5.112 C 15.245 5.229 14.758 5.304 14.226 5.266 C 14.611 5.125 15.047 5.098 15.607 5.112 Z" style=""/>
  <path fill="#E6AF14" opacity="1.000000" stroke="none" d="M 16.22 8.007 C 16.175 7.844 16.228 7.597 16.383 7.265 C 16.427 7.431 16.374 7.676 16.22 8.007 Z" style=""/>
  <path fill="#E6AF14" opacity="1.000000" stroke="none" d="M 16.59 6.986 C 16.545 6.902 16.606 6.749 16.772 6.525 C 16.817 6.606 16.76 6.764 16.59 6.986 Z" style=""/>
  <path fill="#F4A20F" opacity="1.000000" stroke="none" d="M 7.1 15.66 C 7.16 15.231 7.226 14.802 7.518 14.3 C 8.923 14.325 10.124 14.609 11.266 14.456 C 11.924 14.366 12.48 13.57 13.081 13.093 C 13.102 13.503 13.125 13.914 13.199 14.476 C 13.247 14.624 13.222 14.619 13.093 14.673 C 13.02 15.153 13.073 15.584 13.13 16.013 C 13.247 16.036 13.341 16.1 13.438 16.399 C 13.475 16.766 13.479 16.933 13.385 17.201 C 11.221 16.754 9.158 16.208 7.1 15.66 Z" style=""/>
  <path fill="#DB8C2B" opacity="1.000000" stroke="none" d="M 13.486 17.099 C 13.479 16.933 13.475 16.766 13.475 16.475 C 14.352 16.371 15.226 16.34 16.087 16.424 C 16.666 16.483 17.231 16.706 17.803 16.856 C 17.609 17.459 17.454 18.079 17.206 18.659 C 17.065 18.986 16.76 19.243 16.436 19.624 C 16.248 19.663 16.172 19.59 16.11 19.294 C 16.329 18.572 16.556 18.053 16.907 17.262 C 15.598 17.201 14.542 17.149 13.486 17.099 Z" style=""/>
  <path fill="#E6AF14" opacity="1.000000" stroke="none" d="M 13.121 15.873 C 13.073 15.584 13.02 15.153 13.086 14.667 C 13.171 14.984 13.142 15.36 13.121 15.873 Z" style=""/>
  <path fill="#BD6F2F" opacity="1.000000" stroke="none" d="M 11.286 26.066 C 11.128 26.296 10.969 26.526 10.682 26.779 C 10.547 26.802 10.446 26.715 10.474 26.603 C 10.717 26.304 10.937 26.115 11.189 25.959 C 11.221 25.995 11.286 26.066 11.286 26.066 Z" style=""/>
  <path fill="#BD6F2F" opacity="1.000000" stroke="none" d="M 12.106 25.055 C 12.005 25.226 11.908 25.397 11.688 25.589 C 11.566 25.61 11.497 25.55 11.534 25.456 C 11.7 25.201 11.826 25.043 11.993 24.926 C 12.03 24.968 12.106 25.055 12.106 25.055 Z" style=""/>
  <path fill="#BD6F2F" opacity="1.000000" stroke="none" d="M 12.602 24.491 C 12.496 24.646 12.386 24.805 12.191 25.009 C 12.106 25.055 12.03 24.968 12.046 24.848 C 12.156 24.644 12.248 24.559 12.407 24.478 C 12.471 24.481 12.602 24.491 12.602 24.491 Z" style=""/>
  <path fill="#DB8C2B" opacity="1.000000" stroke="none" d="M 13.527 23.311 C 13.523 23.173 13.609 22.982 13.8 22.749 C 13.808 22.893 13.715 23.077 13.527 23.311 Z" style=""/>
  <path fill="#BD6F2F" opacity="1.000000" stroke="none" d="M 10.6 26.846 C 10.535 27.06 10.425 27.229 10.226 27.452 C 10.141 27.509 10.076 27.445 10.08 27.318 C 10.206 27.032 10.328 26.874 10.446 26.715 C 10.446 26.715 10.547 26.802 10.6 26.846 Z" style=""/>
  <path fill="#DB8C2B" opacity="1.000000" stroke="none" d="M 15.026 21.465 C 15.026 21.322 15.123 21.131 15.327 20.9 C 15.33 21.046 15.226 21.233 15.026 21.465 Z" style=""/>
  <path fill="#BD6F2F" opacity="1.000000" stroke="none" d="M 11.599 25.64 C 11.603 25.791 11.538 25.89 11.364 26.018 C 11.286 26.066 11.221 25.995 11.238 25.892 C 11.33 25.706 11.412 25.625 11.497 25.55 C 11.497 25.55 11.566 25.61 11.599 25.64 Z" style=""/>
  <path fill="#DB8C2B" opacity="1.000000" stroke="none" d="M 13.963 22.712 C 13.929 22.632 13.995 22.52 14.149 22.366 C 14.181 22.443 14.12 22.561 13.963 22.712 Z" style=""/>
  <path fill="#DB8C2B" opacity="1.000000" stroke="none" d="M 12.659 24.424 C 12.602 24.491 12.471 24.481 12.448 24.41 C 12.489 24.245 12.569 24.174 12.687 24.139 C 12.712 24.153 12.753 24.19 12.753 24.19 C 12.753 24.19 12.712 24.355 12.659 24.424 Z" style=""/>
  <path fill="#DB8C2B" opacity="1.000000" stroke="none" d="M 12.695 23.765 C 12.764 23.768 12.829 23.77 12.996 23.781 C 13.036 23.896 12.98 24.004 12.838 24.149 C 12.753 24.19 12.712 24.153 12.7 24.049 C 12.683 23.944 12.695 23.765 12.695 23.765 Z" style=""/>
  <path fill="#DB8C2B" opacity="1.000000" stroke="none" d="M 14.312 22.318 C 14.287 22.244 14.352 22.139 14.51 21.996 C 14.535 22.068 14.469 22.178 14.312 22.318 Z" style=""/>
  <path fill="#DB8C2B" opacity="1.000000" stroke="none" d="M 15.786 20.457 C 15.757 20.39 15.823 20.285 15.964 20.134 C 15.989 20.198 15.931 20.308 15.786 20.457 Z" style=""/>
  <path fill="#F5960E" opacity="1.000000" stroke="none" d="M 13.325 17.089 C 14.503 17.037 15.578 17.089 16.907 17.152 C 16.549 17.972 16.317 18.511 16.062 19.184 C 13.897 21.32 11.152 20.326 8.703 20.783 C 7.729 20.964 6.664 20.65 5.686 20.567 C 5.873 19.026 6.019 17.801 6.166 16.408 C 6.352 16.029 6.543 15.814 6.827 15.546 C 9.024 16.062 11.119 16.626 13.325 17.089 Z" style=""/>
  <path fill="#F2AA0C" opacity="1.000000" stroke="none" d="M 13.194 13.02 C 12.48 13.57 11.924 14.366 11.266 14.456 C 10.124 14.609 8.923 14.325 7.612 14.208 C 7.98 11.192 7.98 11.192 13.929 11.157 C 13.702 11.82 13.504 12.384 13.194 13.02 Z" style=""/>
  <path fill="#F07E1A" opacity="1.000000" stroke="none" d="M 12.797 23.411 C 12.873 23.503 12.861 23.678 12.854 23.768 C 12.748 23.912 12.666 23.983 12.561 24.141 C 12.427 24.297 12.333 24.378 12.188 24.542 C 12.005 24.777 11.879 24.938 11.713 25.19 C 11.591 25.362 11.509 25.44 11.383 25.594 C 11.116 25.849 10.896 26.039 10.648 26.339 C 10.503 26.61 10.384 26.768 10.226 27.021 C 10.027 26.651 9.69 26.171 9.731 25.727 C 9.837 24.593 10.113 23.477 10.349 22.196 C 11.16 22.464 11.94 22.889 12.797 23.411 Z" style=""/>
</svg>