<?xml version="1.0" encoding="utf-8"?>
<svg xmlns="http://www.w3.org/2000/svg" viewBox="-0.0259 0.0085 36.9705 36.844" width="36.9705px" height="36.844px">
  <path d="M 17.763 5.533 C 18.121 5.551 18.121 5.551 18.355 5.759 C 18.377 6.055 18.386 6.34 18.384 6.633 C 18.384 6.724 18.384 6.814 18.384 6.907 C 18.384 7.206 18.382 7.506 18.379 7.805 C 18.379 8.011 18.377 8.22 18.377 8.425 C 18.377 8.971 18.375 9.518 18.373 10.064 C 18.371 10.62 18.368 11.178 18.368 11.734 C 18.366 12.826 18.362 13.919 18.355 15.014 C 18.483 15.012 18.612 15.012 18.742 15.012 C 19.942 15.007 21.14 15.006 22.34 15.003 C 22.956 15.001 23.571 15.001 24.187 14.999 C 24.782 14.996 25.376 14.994 25.97 14.994 C 26.198 14.994 26.426 14.994 26.654 14.991 C 26.97 14.989 27.288 14.989 27.604 14.989 C 27.699 14.989 27.794 14.989 27.891 14.987 C 28.544 14.989 28.544 14.989 28.804 15.22 C 28.863 15.707 28.764 15.975 28.468 16.382 C 28.395 16.483 28.325 16.583 28.249 16.685 C 28.172 16.794 28.092 16.898 28.011 17.008 C 27.931 17.12 27.851 17.23 27.77 17.344 C 27.606 17.568 27.442 17.795 27.277 18.019 C 26.947 18.472 26.625 18.926 26.302 19.379 C 26.187 19.542 26.072 19.702 25.958 19.861 C 25.657 20.282 25.359 20.705 25.063 21.128 C 24.596 21.791 24.121 22.452 23.646 23.11 C 23.149 23.801 22.658 24.493 22.178 25.196 C 21.606 26.034 21.002 26.856 20.395 27.676 C 19.995 28.213 19.606 28.753 19.23 29.301 C 18.483 30.393 18.483 30.393 18.004 30.818 C 17.718 30.843 17.718 30.843 17.418 30.818 C 17.12 30.419 17.151 30.106 17.155 29.649 C 17.155 29.563 17.155 29.473 17.155 29.384 C 17.155 29.096 17.158 28.806 17.159 28.517 C 17.159 28.318 17.159 28.117 17.162 27.918 C 17.162 27.391 17.164 26.864 17.166 26.339 C 17.169 25.801 17.171 25.264 17.171 24.727 C 17.173 23.673 17.177 22.619 17.184 21.562 C 17.062 21.565 16.943 21.565 16.819 21.567 C 15.692 21.574 14.562 21.581 13.436 21.585 C 12.856 21.587 12.275 21.59 11.696 21.595 C 11.138 21.599 10.576 21.602 10.017 21.604 C 9.805 21.604 9.59 21.606 9.375 21.608 C 9.078 21.61 8.779 21.61 8.481 21.61 C 8.392 21.613 8.304 21.613 8.211 21.615 C 7.82 21.613 7.613 21.61 7.322 21.368 C 7.159 21.062 7.197 20.948 7.322 20.627 C 7.479 20.344 7.657 20.069 7.836 19.795 C 7.881 19.725 7.93 19.651 7.977 19.576 C 8.07 19.436 8.16 19.295 8.253 19.155 C 8.361 18.988 8.468 18.821 8.574 18.652 C 8.625 18.584 8.678 18.515 8.73 18.444 C 8.808 18.444 8.885 18.444 8.965 18.444 C 8.978 18.368 8.991 18.293 9.005 18.215 C 9.086 17.909 9.203 17.703 9.387 17.436 C 9.449 17.342 9.511 17.25 9.577 17.156 C 9.643 17.059 9.71 16.96 9.78 16.86 C 9.92 16.652 10.059 16.446 10.2 16.24 C 10.269 16.137 10.339 16.035 10.41 15.929 C 10.682 15.529 10.952 15.124 11.216 14.722 C 11.312 14.578 11.406 14.436 11.502 14.294 C 11.57 14.189 11.57 14.189 11.641 14.082 C 11.787 13.865 11.931 13.647 12.074 13.43 C 12.123 13.357 12.172 13.283 12.222 13.208 C 12.319 13.062 12.417 12.913 12.514 12.767 C 12.768 12.388 13.02 12.008 13.269 11.629 C 13.347 11.51 13.347 11.51 13.427 11.39 C 13.526 11.242 13.623 11.095 13.721 10.947 C 14.002 10.524 14.289 10.108 14.583 9.697 C 14.719 9.498 14.848 9.299 14.974 9.093 C 17.162 5.567 17.162 5.567 17.763 5.533 Z" fill="#F9D351" style=""/>
</svg>