<?xml version="1.0" encoding="utf-8"?>
<svg width="158" height="34" viewBox="0 0 158 34" fill="none" xmlns="http://www.w3.org/2000/svg" xmlns:bx="https://boxy-svg.com">
  <defs>
    <bx:export>
      <bx:file format="svg"/>
    </bx:export>
  </defs>
  <path d="M 51.746 29.165 C 51.163 29.064 51 28.794 51 27.917 C 51 26.906 51.065 26.837 51.941 26.972 C 52.588 27.074 53.076 26.906 53.562 26.399 C 54.859 25.05 54.761 24.308 52.653 18.877 C 51.551 16.045 50.677 13.616 50.677 13.481 C 50.677 13.313 51.325 13.211 52.135 13.211 C 53.82 13.211 53.627 12.841 55.085 18.102 L 56.122 21.778 L 56.835 19.282 C 57.225 17.9 57.776 15.943 58.067 15 L 58.586 13.211 L 60.013 13.211 C 61.245 13.211 61.406 13.279 61.212 13.819 C 61.115 14.123 60.078 17.057 58.911 20.294 C 57.776 23.532 56.577 26.567 56.252 27.006 C 55.052 28.726 53.367 29.503 51.746 29.165 Z" style="fill: rgb(250, 250, 248);"/>
  <path d="M 75.54 23.87 C 74.892 23.6 74.082 23.195 73.79 22.958 C 72.267 21.61 71.878 17.462 73.141 15.538 C 74.115 13.988 76.416 12.773 77.907 13.043 C 80.468 13.549 81.505 14.797 81.926 18.035 L 82.154 19.619 L 78.75 19.619 C 75.54 19.619 75.314 19.654 75.314 20.294 C 75.314 21.475 76.707 22.081 79.041 21.913 C 81.052 21.778 81.149 21.813 81.149 22.555 C 81.149 22.958 80.889 23.432 80.598 23.6 C 79.496 24.207 76.805 24.342 75.54 23.87 Z M 79.204 16.922 C 79.204 16.112 78.102 14.898 77.356 14.898 C 76.61 14.898 75.314 16.213 75.314 16.989 C 75.314 17.495 75.605 17.597 77.258 17.597 C 78.976 17.597 79.204 17.529 79.204 16.922 Z" style="fill: rgb(250, 250, 248);"/>
  <path d="M 94.182 23.97 C 92.269 23.498 90.097 21.306 89.577 19.282 C 88.67 15.808 89.934 11.728 92.431 10.007 C 94.052 8.895 96.516 8.389 98.525 8.725 L 100.113 8.995 L 100.21 10.48 C 100.308 11.728 100.243 11.931 99.789 11.728 C 97.488 10.817 95.121 11.256 93.629 12.874 C 91.911 14.73 92.204 19.216 94.084 20.598 C 95.38 21.576 97.26 21.813 98.913 21.205 L 100.275 20.699 L 100.275 22.015 C 100.275 22.891 100.113 23.398 99.724 23.633 C 98.785 24.14 95.672 24.308 94.182 23.97 Z" style="fill: rgb(250, 250, 248);"/>
  <path d="M 117.457 24.005 C 115.869 23.6 114.312 21.745 114.053 19.889 C 113.437 15.64 116.678 12.166 120.31 13.211 C 122.384 13.785 123.616 15.673 123.616 18.304 L 123.616 19.619 L 120.212 19.619 C 118.332 19.619 116.809 19.754 116.809 19.924 C 116.809 20.059 117.132 20.631 117.522 21.138 C 118.171 22.015 118.332 22.048 120.44 21.913 L 122.644 21.778 L 122.644 22.69 C 122.644 23.532 122.481 23.633 121.023 23.97 C 119.175 24.375 119.045 24.375 117.457 24.005 Z M 120.893 17.057 C 120.796 16.753 120.698 16.315 120.698 16.078 C 120.698 15.403 119.466 14.797 118.559 15.033 C 117.911 15.202 116.809 16.72 116.809 17.427 C 116.809 17.529 117.781 17.597 118.948 17.597 C 120.763 17.597 121.056 17.529 120.893 17.057 Z" style="fill: rgb(250, 250, 248);"/>
  <path d="M 140.862 23.837 C 139.5 23.228 139.177 22.216 139.177 18.574 C 139.177 15.607 139.177 15.573 138.366 15.573 C 137.652 15.573 137.556 15.438 137.556 14.392 C 137.556 13.346 137.652 13.211 138.366 13.211 C 139.079 13.211 139.177 13.076 139.177 12.031 C 139.177 10.986 139.274 10.851 140.409 10.547 C 142.127 10.041 142.095 10.007 142.095 11.694 C 142.095 13.211 142.095 13.211 143.229 13.211 C 144.299 13.211 144.364 13.279 144.364 14.392 C 144.364 15.505 144.299 15.573 143.229 15.573 L 142.095 15.573 L 142.095 18.372 C 142.095 21.374 142.353 21.981 143.618 21.981 C 144.234 21.981 144.364 22.15 144.364 22.958 C 144.364 24.375 142.873 24.747 140.862 23.837 Z" style="fill: rgb(250, 250, 248);"/>
  <path d="M 38.358 16.382 L 38.358 8.725 L 42.02 8.895 C 46.041 9.064 47.532 9.602 48.31 11.222 C 49.25 13.076 48.343 15.877 46.56 16.652 C 46.041 16.888 45.619 17.09 45.554 17.09 C 45.521 17.124 46.041 17.765 46.69 18.507 C 47.369 19.249 48.471 20.801 49.152 21.948 L 50.352 24.005 L 48.666 24.005 L 46.948 23.97 L 45.328 21.205 C 43.901 18.742 43.577 18.439 42.636 18.339 L 41.599 18.237 L 41.599 21.104 L 41.599 24.005 L 39.979 24.005 L 38.358 24.005 L 38.358 16.382 Z M 44.291 15.538 C 45.263 15 45.49 14.595 45.49 13.313 C 45.49 11.964 44.517 11.188 42.831 11.188 L 41.599 11.188 L 41.599 13.549 L 41.599 15.91 L 42.604 15.91 C 43.156 15.91 43.901 15.742 44.291 15.538 Z" style="fill: rgb(250, 250, 248);"/>
  <path d="M 61.698 23.465 C 61.698 23.195 62.865 21.408 64.291 19.519 C 65.718 17.63 66.885 15.977 66.885 15.842 C 66.885 15.673 65.881 15.573 64.616 15.573 L 62.347 15.573 L 62.347 14.392 L 62.347 13.211 L 66.562 13.211 L 70.775 13.211 L 70.775 14.055 C 70.775 14.595 69.868 16.112 68.312 18.169 L 65.881 21.475 L 68.312 21.576 L 70.775 21.678 L 70.775 22.825 L 70.775 24.005 L 66.237 24.005 C 62.314 24.005 61.698 23.937 61.698 23.465 Z" style="fill: rgb(250, 250, 248);"/>
  <path d="M 102.869 16.078 L 102.869 8.152 L 104.327 8.152 L 105.787 8.152 L 105.787 16.078 L 105.787 24.005 L 104.327 24.005 L 102.869 24.005 L 102.869 16.078 Z" style="fill: rgb(250, 250, 248);"/>
  <path d="M 108.704 18.609 L 108.704 13.211 L 110.162 13.211 L 111.622 13.211 L 111.622 18.609 L 111.622 24.005 L 110.162 24.005 L 108.704 24.005 L 108.704 18.609 Z" style="fill: rgb(250, 250, 248);"/>
  <path d="M 125.885 18.609 L 125.885 13.211 L 127.344 13.211 C 128.706 13.211 128.804 13.279 128.804 14.123 L 128.804 15 L 129.548 14.291 C 131.266 12.638 133.568 12.638 134.767 14.358 C 135.351 15.168 135.448 15.877 135.546 19.654 L 135.676 24.005 L 134.184 24.005 L 132.693 24.005 L 132.693 20.363 C 132.693 17.63 132.563 16.55 132.175 15.977 C 131.559 15.033 130.327 15 129.451 15.91 C 128.867 16.517 128.804 17.024 128.804 20.294 L 128.804 24.005 L 127.344 24.005 L 125.885 24.005 L 125.885 18.609 Z" style="fill: rgb(250, 250, 248);"/>
  <path d="M 109.481 11.188 C 108.121 10.614 108.186 9.03 109.611 8.457 C 110.195 8.22 110.617 8.287 111.168 8.659 C 112.14 9.299 112.173 10.311 111.232 10.986 C 110.422 11.593 110.422 11.593 109.481 11.188 Z" style="fill: rgb(250, 250, 248);"/>
  <path d="M 16.072 3.129 C 16.479 3.149 16.479 3.149 16.747 3.377 C 16.773 3.7 16.781 4.012 16.78 4.333 C 16.78 4.433 16.78 4.531 16.78 4.633 C 16.78 4.96 16.778 5.289 16.776 5.615 C 16.776 5.841 16.773 6.069 16.773 6.294 C 16.773 6.891 16.77 7.49 16.767 8.087 C 16.765 8.696 16.762 9.306 16.762 9.914 C 16.76 11.11 16.754 12.306 16.747 13.504 C 16.893 13.502 17.039 13.502 17.188 13.502 C 18.555 13.496 19.921 13.494 21.29 13.491 C 21.993 13.488 22.694 13.488 23.397 13.487 C 24.074 13.484 24.754 13.482 25.431 13.482 C 25.692 13.482 25.95 13.482 26.21 13.479 C 26.57 13.476 26.933 13.476 27.293 13.476 C 27.402 13.476 27.51 13.476 27.621 13.474 C 28.365 13.476 28.365 13.476 28.662 13.729 C 28.729 14.262 28.617 14.554 28.278 15 C 28.195 15.11 28.115 15.219 28.029 15.332 C 27.941 15.45 27.85 15.566 27.758 15.685 C 27.667 15.807 27.575 15.928 27.481 16.053 C 27.296 16.299 27.109 16.545 26.921 16.791 C 26.544 17.286 26.177 17.784 25.809 18.279 C 25.678 18.457 25.547 18.632 25.415 18.807 C 25.074 19.268 24.733 19.731 24.396 20.193 C 23.864 20.919 23.322 21.643 22.78 22.362 C 22.214 23.118 21.653 23.876 21.105 24.644 C 20.454 25.561 19.765 26.46 19.073 27.359 C 18.618 27.947 18.173 28.536 17.745 29.136 C 16.893 30.331 16.893 30.331 16.346 30.796 C 16.021 30.823 16.021 30.823 15.677 30.796 C 15.338 30.36 15.373 30.018 15.379 29.517 C 15.379 29.423 15.379 29.325 15.379 29.228 C 15.379 28.912 15.382 28.595 15.384 28.279 C 15.384 28.061 15.384 27.841 15.387 27.623 C 15.387 27.045 15.388 26.469 15.391 25.895 C 15.393 25.307 15.395 24.72 15.395 24.132 C 15.398 22.978 15.403 21.825 15.411 20.668 C 15.273 20.671 15.137 20.671 14.995 20.674 C 13.71 20.682 12.422 20.69 11.137 20.694 C 10.476 20.696 9.813 20.699 9.153 20.704 C 8.516 20.71 7.876 20.711 7.238 20.714 C 6.996 20.714 6.751 20.716 6.506 20.719 C 6.167 20.722 5.826 20.722 5.486 20.722 C 5.386 20.724 5.284 20.724 5.179 20.727 C 4.734 20.724 4.496 20.722 4.166 20.456 C 3.98 20.122 4.023 19.995 4.166 19.645 C 4.344 19.336 4.546 19.034 4.75 18.734 C 4.802 18.657 4.859 18.578 4.911 18.494 C 5.018 18.341 5.121 18.187 5.227 18.035 C 5.35 17.852 5.472 17.67 5.592 17.484 C 5.651 17.41 5.711 17.334 5.771 17.257 C 5.86 17.257 5.948 17.257 6.039 17.257 C 6.052 17.173 6.069 17.091 6.084 17.006 C 6.177 16.672 6.311 16.446 6.519 16.154 C 6.591 16.05 6.662 15.951 6.735 15.847 C 6.813 15.741 6.888 15.632 6.968 15.523 C 7.128 15.295 7.286 15.069 7.446 14.845 C 7.526 14.732 7.607 14.619 7.686 14.504 C 7.996 14.067 8.305 13.624 8.605 13.183 C 8.714 13.026 8.823 12.871 8.931 12.716 C 9.011 12.6 9.011 12.6 9.09 12.483 C 9.257 12.246 9.42 12.007 9.584 11.771 C 9.639 11.69 9.696 11.61 9.752 11.528 C 9.863 11.367 9.975 11.205 10.085 11.045 C 10.376 10.629 10.663 10.215 10.948 9.799 C 11.036 9.669 11.036 9.669 11.126 9.538 C 11.24 9.376 11.351 9.215 11.461 9.053 C 11.783 8.59 12.11 8.135 12.445 7.685 C 12.601 7.467 12.747 7.249 12.89 7.024 C 15.387 3.166 15.387 3.166 16.072 3.129 Z" fill="#F9D351" style=""/>
</svg>